<mxfile host="65bd71144e">
    <diagram id="gRzL8eDKsJ9EOWxfz9kO" name="Page-1">
        <mxGraphModel dx="1322" dy="1043" grid="1" gridSize="10" guides="1" tooltips="1" connect="1" arrows="1" fold="1" page="0" pageScale="1" pageWidth="1100" pageHeight="850" math="0" shadow="0">
            <root>
                <mxCell id="0"/>
                <mxCell id="1" parent="0"/>
                <mxCell id="35" value="" style="edgeStyle=none;html=1;" parent="1" source="21" target="34" edge="1">
                    <mxGeometry relative="1" as="geometry"/>
                </mxCell>
                <mxCell id="21" value="Open Browser&amp;nbsp;" style="whiteSpace=wrap;html=1;aspect=fixed;fillColor=#1ba1e2;fontColor=#ffffff;strokeColor=#006EAF;" parent="1" vertex="1">
                    <mxGeometry x="-120" y="240" width="90" height="90" as="geometry"/>
                </mxCell>
                <mxCell id="44" style="edgeStyle=none;html=1;exitX=1;exitY=0.5;exitDx=0;exitDy=0;entryX=0;entryY=0.5;entryDx=0;entryDy=0;" parent="1" source="34" target="43" edge="1">
                    <mxGeometry relative="1" as="geometry"/>
                </mxCell>
                <mxCell id="34" value="Navigate to BBC News" style="whiteSpace=wrap;html=1;aspect=fixed;" parent="1" vertex="1">
                    <mxGeometry x="50" y="240" width="90" height="90" as="geometry"/>
                </mxCell>
                <mxCell id="46" style="edgeStyle=none;html=1;exitX=0.5;exitY=0;exitDx=0;exitDy=0;entryX=0.5;entryY=1;entryDx=0;entryDy=0;" parent="1" source="43" target="48" edge="1">
                    <mxGeometry relative="1" as="geometry">
                        <mxPoint x="240" y="200" as="targetPoint"/>
                    </mxGeometry>
                </mxCell>
                <mxCell id="50" style="edgeStyle=none;html=1;exitX=0.5;exitY=1;exitDx=0;exitDy=0;" parent="1" source="43" target="49" edge="1">
                    <mxGeometry relative="1" as="geometry"/>
                </mxCell>
                <mxCell id="43" value="Did page render?" style="ellipse;whiteSpace=wrap;html=1;" parent="1" vertex="1">
                    <mxGeometry x="180" y="245" width="120" height="80" as="geometry"/>
                </mxCell>
                <mxCell id="52" style="edgeStyle=none;html=1;exitX=1;exitY=0.5;exitDx=0;exitDy=0;entryX=0;entryY=0.5;entryDx=0;entryDy=0;" parent="1" source="48" target="54" edge="1">
                    <mxGeometry relative="1" as="geometry">
                        <mxPoint x="390" y="150" as="targetPoint"/>
                    </mxGeometry>
                </mxCell>
                <mxCell id="48" value="YES" style="rhombus;whiteSpace=wrap;html=1;" parent="1" vertex="1">
                    <mxGeometry x="200" y="110" width="80" height="80" as="geometry"/>
                </mxCell>
                <mxCell id="75" value="" style="edgeStyle=none;html=1;" parent="1" source="49" target="74" edge="1">
                    <mxGeometry relative="1" as="geometry"/>
                </mxCell>
                <mxCell id="49" value="NO" style="rhombus;whiteSpace=wrap;html=1;fillColor=rgb(24, 20, 29);" parent="1" vertex="1">
                    <mxGeometry x="200" y="370" width="80" height="80" as="geometry"/>
                </mxCell>
                <mxCell id="56" value="" style="edgeStyle=none;html=1;" parent="1" source="54" target="55" edge="1">
                    <mxGeometry relative="1" as="geometry"/>
                </mxCell>
                <mxCell id="54" value="Click Search Button" style="rounded=0;whiteSpace=wrap;html=1;" parent="1" vertex="1">
                    <mxGeometry x="390" y="120" width="120" height="60" as="geometry"/>
                </mxCell>
                <mxCell id="61" value="" style="edgeStyle=none;html=1;" parent="1" source="55" target="60" edge="1">
                    <mxGeometry relative="1" as="geometry"/>
                </mxCell>
                <mxCell id="55" value="Enter &quot;Cyber Secuirty&quot;" style="whiteSpace=wrap;html=1;fillColor=rgb(24, 20, 29);rounded=0;" parent="1" vertex="1">
                    <mxGeometry x="590" y="120" width="140" height="60" as="geometry"/>
                </mxCell>
                <mxCell id="67" value="" style="edgeStyle=none;html=1;" parent="1" source="60" target="66" edge="1">
                    <mxGeometry relative="1" as="geometry"/>
                </mxCell>
                <mxCell id="71" value="" style="edgeStyle=none;html=1;" parent="1" source="60" target="70" edge="1">
                    <mxGeometry relative="1" as="geometry"/>
                </mxCell>
                <mxCell id="60" value="Did Page Render?" style="ellipse;whiteSpace=wrap;html=1;fillColor=rgb(24, 20, 29);rounded=0;" parent="1" vertex="1">
                    <mxGeometry x="840" y="110" width="120" height="80" as="geometry"/>
                </mxCell>
                <mxCell id="69" value="" style="edgeStyle=none;html=1;" parent="1" source="66" target="68" edge="1">
                    <mxGeometry relative="1" as="geometry"/>
                </mxCell>
                <mxCell id="66" value="YES" style="rhombus;whiteSpace=wrap;html=1;fillColor=rgb(24, 20, 29);rounded=0;" parent="1" vertex="1">
                    <mxGeometry x="860" y="-50" width="80" height="80" as="geometry"/>
                </mxCell>
                <mxCell id="68" value="return titles of articles within a week" style="whiteSpace=wrap;html=1;fillColor=rgb(24, 20, 29);rounded=0;" parent="1" vertex="1">
                    <mxGeometry x="1000" y="-40" width="180" height="60" as="geometry"/>
                </mxCell>
                <mxCell id="73" value="" style="edgeStyle=none;html=1;" parent="1" source="70" target="72" edge="1">
                    <mxGeometry relative="1" as="geometry"/>
                </mxCell>
                <mxCell id="70" value="NO" style="rhombus;whiteSpace=wrap;html=1;fillColor=rgb(24, 20, 29);rounded=0;" parent="1" vertex="1">
                    <mxGeometry x="860" y="270" width="80" height="80" as="geometry"/>
                </mxCell>
                <mxCell id="72" value="wait +5 seconds" style="whiteSpace=wrap;html=1;fillColor=rgb(24, 20, 29);rounded=0;" parent="1" vertex="1">
                    <mxGeometry x="1000" y="280" width="120" height="60" as="geometry"/>
                </mxCell>
                <mxCell id="74" value="wait +5 Seconds" style="whiteSpace=wrap;html=1;fillColor=rgb(24, 20, 29);" parent="1" vertex="1">
                    <mxGeometry x="340" y="380" width="120" height="60" as="geometry"/>
                </mxCell>
            </root>
        </mxGraphModel>
    </diagram>
</mxfile>